<svg xmlns="http://www.w3.org/2000/svg" viewBox="0 0 64 64" role="img" aria-label="QR favicon">
  <defs>
    <linearGradient id="bg" x1="0" y1="0" x2="1" y2="1">
      <stop offset="0%" stop-color="#11100d" />
      <stop offset="100%" stop-color="#1d1912" />
    </linearGradient>
    <linearGradient id="accent" x1="0" y1="0" x2="1" y2="1">
      <stop offset="0%" stop-color="#d2a547" />
      <stop offset="100%" stop-color="#8f5c14" />
    </linearGradient>
  </defs>

  <rect x="1" y="1" width="62" height="62" rx="14" fill="url(#bg)" stroke="#2e2617" stroke-width="2" />

  <g transform="translate(8 8)">
    <rect x="0" y="0" width="18" height="18" rx="3.5" fill="none" stroke="url(#accent)" stroke-width="3" />
    <rect x="4.5" y="4.5" width="9" height="9" rx="2" fill="url(#accent)" />

    <rect x="30" y="0" width="18" height="18" rx="3.5" fill="none" stroke="url(#accent)" stroke-width="3" />
    <rect x="34.5" y="4.5" width="9" height="9" rx="2" fill="url(#accent)" />

    <rect x="0" y="30" width="18" height="18" rx="3.5" fill="none" stroke="url(#accent)" stroke-width="3" />
    <rect x="4.5" y="34.5" width="9" height="9" rx="2" fill="url(#accent)" />

    <rect x="28" y="28" width="4" height="4" rx="1" fill="#f2ebde" />
    <rect x="36" y="28" width="4" height="4" rx="1" fill="#f2ebde" />
    <rect x="44" y="28" width="4" height="4" rx="1" fill="#f2ebde" />
    <rect x="28" y="36" width="4" height="4" rx="1" fill="#f2ebde" />
    <rect x="36" y="36" width="4" height="4" rx="1" fill="#f2ebde" />
    <rect x="44" y="36" width="4" height="4" rx="1" fill="#f2ebde" />
    <rect x="28" y="44" width="4" height="4" rx="1" fill="#f2ebde" />
    <rect x="36" y="44" width="4" height="4" rx="1" fill="#f2ebde" />
  </g>
</svg>
